<?xml version="1.0" encoding="UTF-8" standalone="no"?>
<svg
   version="1.2"
   width="92.05mm"
   height="79.37mm"
   viewBox="0 0 9205 7937"
   preserveAspectRatio="xMidYMid"
   fill-rule="evenodd"
   stroke-width="28.222"
   stroke-linejoin="round"
   xml:space="preserve"
   id="svg1193"
   sodipodi:docname="3-inks.svg"
   inkscape:version="1.2.2 (732a01da63, 2022-12-09, custom)"
   xmlns:inkscape="http://www.inkscape.org/namespaces/inkscape"
   xmlns:sodipodi="http://sodipodi.sourceforge.net/DTD/sodipodi-0.dtd"
   xmlns="http://www.w3.org/2000/svg"
   xmlns:svg="http://www.w3.org/2000/svg"
   xmlns:ooo="http://xml.openoffice.org/svg/export"><sodipodi:namedview
   id="namedview1195"
   pagecolor="#ffffff"
   bordercolor="#000000"
   borderopacity="0.25"
   inkscape:showpageshadow="2"
   inkscape:pageopacity="0.0"
   inkscape:pagecheckerboard="0"
   inkscape:deskcolor="#d1d1d1"
   inkscape:document-units="mm"
   showgrid="false"
   inkscape:zoom="2.7601738"
   inkscape:cx="172.45291"
   inkscape:cy="207.95792"
   inkscape:window-width="1920"
   inkscape:window-height="1031"
   inkscape:window-x="0"
   inkscape:window-y="25"
   inkscape:window-maximized="1"
   inkscape:current-layer="svg1193" />
 <defs
   class="ClipPathGroup"
   id="defs1121">
  <clipPath
   id="presentation_clip_path"
   clipPathUnits="userSpaceOnUse">
   <rect
   x="0"
   y="0"
   width="9205"
   height="7937"
   id="rect1115" />
  </clipPath>
  <clipPath
   id="presentation_clip_path_shrink"
   clipPathUnits="userSpaceOnUse">
   <rect
   x="9"
   y="7"
   width="9187"
   height="7922"
   id="rect1118" />
  </clipPath>
 </defs>
 <defs
   class="TextShapeIndex"
   id="defs1125">
  <g
   ooo:slide="id1"
   ooo:id-list="id3 id4 id5"
   id="g1123" />
 </defs>
 <defs
   class="EmbeddedBulletChars"
   id="defs1157">
  <g
   id="bullet-char-template-57356"
   transform="scale(0.00048828125,-0.00048828125)">
   <path
   d="M 580,1141 L 1163,571 580,0 -4,571 580,1141 Z"
   id="path1127" />
  </g>
  <g
   id="bullet-char-template-57354"
   transform="scale(0.00048828125,-0.00048828125)">
   <path
   d="M 8,1128 L 1137,1128 1137,0 8,0 8,1128 Z"
   id="path1130" />
  </g>
  <g
   id="bullet-char-template-10146"
   transform="scale(0.00048828125,-0.00048828125)">
   <path
   d="M 174,0 L 602,739 174,1481 1456,739 174,0 Z M 1358,739 L 309,1346 659,739 1358,739 Z"
   id="path1133" />
  </g>
  <g
   id="bullet-char-template-10132"
   transform="scale(0.00048828125,-0.00048828125)">
   <path
   d="M 2015,739 L 1276,0 717,0 1260,543 174,543 174,936 1260,936 717,1481 1274,1481 2015,739 Z"
   id="path1136" />
  </g>
  <g
   id="bullet-char-template-10007"
   transform="scale(0.00048828125,-0.00048828125)">
   <path
   d="M 0,-2 C -7,14 -16,27 -25,37 L 356,567 C 262,823 215,952 215,954 215,979 228,992 255,992 264,992 276,990 289,987 310,991 331,999 354,1012 L 381,999 492,748 772,1049 836,1024 860,1049 C 881,1039 901,1025 922,1006 886,937 835,863 770,784 769,783 710,716 594,584 L 774,223 C 774,196 753,168 711,139 L 727,119 C 717,90 699,76 672,76 641,76 570,178 457,381 L 164,-76 C 142,-110 111,-127 72,-127 30,-127 9,-110 8,-76 1,-67 -2,-52 -2,-32 -2,-23 -1,-13 0,-2 Z"
   id="path1139" />
  </g>
  <g
   id="bullet-char-template-10004"
   transform="scale(0.00048828125,-0.00048828125)">
   <path
   d="M 285,-33 C 182,-33 111,30 74,156 52,228 41,333 41,471 41,549 55,616 82,672 116,743 169,778 240,778 293,778 328,747 346,684 L 369,508 C 377,444 397,411 428,410 L 1163,1116 C 1174,1127 1196,1133 1229,1133 1271,1133 1292,1118 1292,1087 L 1292,965 C 1292,929 1282,901 1262,881 L 442,47 C 390,-6 338,-33 285,-33 Z"
   id="path1142" />
  </g>
  <g
   id="bullet-char-template-9679"
   transform="scale(0.00048828125,-0.00048828125)">
   <path
   d="M 813,0 C 632,0 489,54 383,161 276,268 223,411 223,592 223,773 276,916 383,1023 489,1130 632,1184 813,1184 992,1184 1136,1130 1245,1023 1353,916 1407,772 1407,592 1407,412 1353,268 1245,161 1136,54 992,0 813,0 Z"
   id="path1145" />
  </g>
  <g
   id="bullet-char-template-8226"
   transform="scale(0.00048828125,-0.00048828125)">
   <path
   d="M 346,457 C 273,457 209,483 155,535 101,586 74,649 74,723 74,796 101,859 155,911 209,963 273,989 346,989 419,989 480,963 531,910 582,859 608,796 608,723 608,648 583,586 532,535 482,483 420,457 346,457 Z"
   id="path1148" />
  </g>
  <g
   id="bullet-char-template-8211"
   transform="scale(0.00048828125,-0.00048828125)">
   <path
   d="M -4,459 L 1135,459 1135,606 -4,606 -4,459 Z"
   id="path1151" />
  </g>
  <g
   id="bullet-char-template-61548"
   transform="scale(0.00048828125,-0.00048828125)">
   <path
   d="M 173,740 C 173,903 231,1043 346,1159 462,1274 601,1332 765,1332 928,1332 1067,1274 1183,1159 1299,1043 1357,903 1357,740 1357,577 1299,437 1183,322 1067,206 928,148 765,148 601,148 462,206 346,322 231,437 173,577 173,740 Z"
   id="path1154" />
  </g>
 </defs>
 
 
<g
   inkscape:groupmode="layer"
   id="layer1"
   inkscape:label="Layer 1"><path
     fill="#b47804"
     stroke="none"
     d="m 529,6143 c 0,99 679,1357 905,1678 56,79 55,79 -91,79 -144,0 -149,-4 -322,-273 C 797,7279 502,6705 277,6178 180,5952 92,5746 82,5722 c -13,-30 20,-44 107,-44 104,0 136,18 180,104 30,57 45,125 35,152 -10,27 13,77 53,113 39,35 72,79 72,96 z m 7538,1566 -110,191 H 4759 1560 l -150,-230 c -82,-127 -140,-240 -129,-252 12,-11 256,0 543,24 349,31 1486,51 3437,61 l 2915,15 z m 407,-188 c -191,368 -200,379 -315,379 -119,0 -145,-28 -85,-90 78,-79 372,-726 478,-1053 112,-343 120,-356 226,-367 90,-9 110,2 110,59 0,129 -217,690 -414,1072 z m -255,-91 -1329,24 c -2259,39 -3854,14 -5127,-82 -613,-46 -573,-26 -747,-367 -80,-157 -92,-203 -49,-186 102,39 1008,161 1677,225 557,53 1026,63 3184,63 1392,0 2531,2 2531,4 0,2 -32,75 -70,162 z m 251,-619 c -63,184 -70,191 -220,214 -256,39 -3735,61 -4469,28 C 2748,7007 1634,6892 1039,6771 L 861,6734 731,6447 c -72,-158 -125,-293 -117,-301 7,-8 146,26 308,75 731,220 1393,353 2323,468 421,52 786,63 2080,63 1396,-1 2034,-24 2972,-110 l 237,-22 z M 4734,6516 c -7,178 -12,185 -108,185 -87,0 -102,-15 -114,-115 -19,-147 -5,-2893 24,-4955 21,-1496 26,-1596 85,-1596 57,0 65,58 84,609 21,594 45,5504 29,5872 z m 4341,-649 c -35,11 -987,203 -2115,427 -1127,224 -2067,407 -2089,407 -43,0 -52,-138 -12,-196 30,-43 416,-148 626,-171 78,-8 292,-47 475,-85 184,-39 446,-80 582,-92 136,-11 406,-60 600,-108 194,-48 406,-87 472,-88 66,0 227,-33 358,-72 132,-39 420,-93 640,-121 221,-27 424,-54 452,-61 79,-17 89,137 11,160 z M 5620,1531 c -430,205 -791,373 -802,373 -12,0 -20,-44 -19,-97 1,-91 43,-117 706,-429 387,-183 692,-344 677,-358 -15,-14 -337,-144 -715,-290 -647,-248 -688,-269 -699,-361 -8,-69 2,-91 35,-78 894,351 1616,625 1648,625 23,0 103,-32 179,-70 l 139,-71 38,71 c 42,79 20,141 -51,141 -25,0 -116,38 -201,85 -84,47 -506,254 -935,459 z"
     id="path1166"
     style="display:inline" /><path
     fill="#e8f2a1"
     stroke="none"
     d="m 4285,5958 c 69,238 125,495 125,572 0,76 -12,137 -26,136 -15,-1 -199,-89 -410,-197 -453,-229 -816,-368 -1204,-458 -231,-54 -418,-66 -1022,-64 -407,1 -836,20 -952,41 -175,32 -221,30 -265,-12 -46,-45 -40,-88 59,-376 C 953,4541 1674,3258 2455,2277 2856,1776 3665,970 4095,645 c 185,-140 350,-255 365,-255 49,0 -3,254 -115,564 -207,574 -429,1954 -429,2666 0,694 127,1495 369,2338 z m 2576,73 c -658,119 -1359,247 -1556,285 -196,38 -383,69 -414,69 -69,0 -75,-92 -8,-131 98,-57 198,-274 198,-431 0,-156 -141,-461 -213,-461 -63,0 -37,-228 31,-271 96,-59 182,-266 182,-433 0,-168 -59,-300 -190,-422 -114,-106 -115,-156 -9,-226 255,-167 261,-637 10,-868 -105,-97 -118,-184 -38,-251 99,-82 157,-237 157,-421 0,-189 -35,-286 -145,-407 -65,-72 -62,-74 819,-494 487,-232 906,-427 932,-433 30,-7 55,38 70,124 263,1545 909,3002 1825,4120 127,154 224,290 217,302 -7,12 -144,33 -304,46 -159,14 -307,39 -327,56 -21,17 -578,128 -1237,247 z"
     id="path1173"
     style="display:inline" /><path
     fill="#000000"
     stroke="none"
     d="M 982,7681 C 744,7315 457,6753 213,6176 97,5901 2,5669 2,5660 c 0,-8 85,-15 189,-15 157,0 194,12 221,73 27,61 58,8 186,-326 C 1010,4323 1615,3254 2321,2348 2874,1638 3623,899 4189,504 4473,306 4478,299 4480,152 l 2,-150 h 138 c 129,0 139,8 149,108 11,106 24,113 818,423 444,174 829,316 857,316 28,0 94,-22 146,-49 209,-106 236,-102 287,38 30,82 34,135 12,142 -19,7 -64,34 -100,60 -62,45 -63,66 -20,325 222,1337 772,2618 1595,3715 418,558 469,602 656,567 l 148,-27 23,138 c 8,47 13,91 14,119 v 17 c 0,7 -1,12 -3,13 -7,6 -893,187 -1970,402 l -1958,392 1023,-16 c 563,-10 1293,-41 1623,-69 330,-29 609,-52 622,-53 12,-1 31,-49 43,-107 20,-102 28,-106 213,-106 h 192 l -71,251 c -88,310 -269,746 -447,1072 l -134,247 -3595,9 -3595,8 z M 531,6145 c 0,-17 -33,-60 -72,-96 -40,-35 -63,-86 -53,-113 10,-27 -5,-95 -35,-152 -44,-86 -76,-104 -180,-104 -87,0 -120,14 -107,44 10,24 98,230 195,456 225,527 520,1101 744,1449 173,269 178,273 322,273 146,0 147,0 91,-79 C 1210,7502 531,6244 531,6145 Z m 7537,1566 109,-191 -2915,-15 c -1950,-10 -3087,-30 -3436,-61 -287,-24 -531,-35 -543,-24 -11,12 47,125 129,252 l 150,230 h 3198 3198 z m 408,-188 c 197,-382 414,-943 414,-1072 0,-57 -20,-68 -110,-59 -106,11 -114,24 -226,367 -106,327 -400,974 -478,1053 -60,62 -34,90 85,90 115,0 124,-11 315,-379 z m -255,-91 70,-157 c 38,-87 70,-160 70,-162 0,-2 -1139,-4 -2531,-4 -2157,0 -2626,-10 -3183,-63 -669,-64 -1575,-186 -1677,-225 -43,-17 -31,29 49,186 174,341 134,321 747,367 1273,96 2867,121 5126,82 z m 251,-619 64,-191 -237,22 c -938,86 -1576,109 -2972,110 -1293,0 -1658,-11 -2080,-63 -930,-115 -1592,-248 -2323,-468 -162,-49 -301,-83 -308,-75 -8,8 45,143 117,301 l 130,287 178,37 c 595,121 1709,236 2743,282 734,33 4212,11 4468,-28 150,-23 157,-30 220,-214 z M 4078,6581 c -261,-150 -846,-385 -1209,-486 -242,-67 -367,-76 -1068,-78 -437,-1 -873,12 -970,30 l -176,31 211,66 c 699,218 1687,416 2416,485 224,22 462,44 529,51 68,6 203,14 300,16 l 177,5 z m 657,-63 c 16,-368 -8,-5278 -29,-5872 -19,-551 -27,-609 -84,-609 -58,0 -63,100 -84,1596 -29,2062 -43,4808 -24,4955 12,100 27,115 113,115 96,0 101,-7 108,-185 z m 4342,-649 c 78,-23 68,-177 -11,-160 -28,7 -231,34 -452,61 -220,28 -508,82 -640,121 -131,39 -292,72 -358,72 -66,1 -278,40 -472,88 -194,48 -464,97 -600,108 -136,12 -398,53 -582,92 -184,38 -398,77 -476,85 -210,23 -596,128 -626,171 -40,58 -31,196 12,196 22,0 962,-183 2090,-407 1128,-224 2080,-416 2115,-427 z m -4791,89 c -242,-843 -369,-1645 -369,-2338 0,-712 222,-2092 429,-2666 112,-310 164,-564 115,-564 -15,0 -180,115 -365,255 C 3666,970 2857,1776 2456,2277 1674,3258 953,4541 590,5600 c -99,288 -105,331 -59,376 44,42 90,44 265,12 116,-21 545,-40 952,-41 605,-2 792,10 1023,64 388,90 751,229 1204,458 211,108 395,196 410,197 14,1 26,-60 26,-136 0,-77 -56,-334 -125,-572 z m 2575,74 c 659,-119 1216,-230 1237,-247 20,-17 168,-42 327,-56 160,-13 297,-34 304,-46 7,-12 -90,-148 -217,-302 C 7596,4263 6950,2807 6687,1261 c -15,-86 -40,-131 -70,-124 -26,6 -446,201 -933,433 -881,420 -884,422 -819,494 110,121 145,218 145,407 0,184 -58,340 -157,422 -80,67 -67,154 38,251 251,231 245,701 -10,867 -106,70 -105,120 9,226 131,122 190,254 190,422 0,167 -86,374 -182,433 -68,43 -94,271 -31,271 72,0 213,305 213,461 0,157 -100,374 -198,431 -67,39 -61,131 8,131 31,0 218,-31 414,-69 197,-38 898,-166 1557,-285 z m -1921,63 c 42,-70 70,-178 70,-274 0,-139 -102,-388 -158,-388 -10,0 -19,175 -19,388 0,214 9,388 19,388 10,0 49,-51 88,-114 z M 4476,760 4374,1066 c -131,395 -226,866 -319,1585 -61,472 -71,693 -56,1196 20,675 66,983 263,1780 l 131,529 22,-352 c 13,-194 31,-1409 42,-2698 z m 466,3624 c -141,-224 -166,-141 -121,394 l 23,272 72,-72 c 51,-51 75,-130 85,-275 10,-161 -3,-229 -59,-319 z m 60,-758 c 16,-197 -36,-354 -149,-447 -49,-42 -55,-2 -55,389 v 435 l 94,-93 c 72,-72 98,-138 110,-284 z m -61,-1001 c 49,-148 23,-310 -72,-454 l -70,-105 -1,383 c 0,331 7,378 51,341 28,-23 70,-98 92,-165 z m 680,-1091 c 430,-205 852,-412 936,-459 85,-47 176,-85 201,-85 71,0 93,-62 51,-141 l -38,-71 -139,71 c -76,38 -156,70 -179,70 -32,0 -755,-275 -1649,-626 -33,-13 -43,9 -35,78 11,92 52,113 699,362 379,146 701,276 716,290 15,14 -290,175 -678,358 -663,312 -705,338 -706,429 -1,53 7,97 19,97 11,0 372,-168 802,-373 z M 5413,776 C 5104,656 4831,550 4807,541 c -34,-13 -44,88 -44,440 0,252 9,506 21,565 l 22,107 618,-296 c 339,-163 627,-297 640,-298 52,-2 -125,-80 -651,-283 z"
     id="path1180"
     style="display:inline" /></g></svg>
